<svg width="24" height="28" viewBox="0 0 24 28" fill="none" xmlns="http://www.w3.org/2000/svg">
<path d="M9.47866 19.1138C5.09446 19.1138 1.52783 22.6805 1.52783 27.0647C1.52783 27.5813 1.94657 28 2.4632 28H16.4945C17.0111 28 17.4298 27.5813 17.4295 27.0647C17.4295 22.6805 13.8629 19.1138 9.47866 19.1138ZM3.47064 26.1292C3.92181 23.2192 6.44424 20.9846 9.47899 20.9846C12.5137 20.9846 15.0362 23.2192 15.4873 26.1292H3.47064Z" fill="#606060"/>
<path d="M23.2976 2.0828C22.0052 0.790107 20.2809 0.0782471 18.4426 0.0782471C16.6045 0.0782471 14.8806 0.790107 13.5879 2.0828C10.9108 4.75989 10.9108 9.11603 13.5879 11.7931C13.7631 11.9687 14.001 12.0672 14.2492 12.0672C14.4974 12.0672 14.735 11.9687 14.9106 11.7929L23.2976 3.40551C23.663 3.04031 23.663 2.44789 23.2976 2.0828ZM14.3113 9.74674C12.9893 7.8036 13.1888 5.12744 14.9106 3.40573C15.85 2.46659 17.1041 1.94931 18.4426 1.94931C19.4619 1.94931 20.4319 2.24894 21.2516 2.80642L14.3113 9.74674Z" fill="#606060"/>
<path d="M12.5048 0.213245C12.14 -0.0867134 11.6102 -0.0682839 11.2679 0.256283L0.29265 10.6392C0.110542 10.8116 0.00516073 11.0498 0.000184214 11.3008C-0.0047923 11.5515 0.091238 11.7938 0.266783 11.973L8.81004 20.7034L10.1474 19.3948L2.26942 11.3444L11.9542 2.18258L13.5926 3.52924L14.7809 2.08409L12.5048 0.213245Z" fill="#606060"/>
</svg>
